<svg width="22" height="22" viewBox="0 0 22 22" fill="none" xmlns="http://www.w3.org/2000/svg">
<g id="logos:telegram">
<path id="Vector" d="M11.1649 0.916626C8.49122 0.916626 5.92469 1.97963 4.03564 3.86994C2.14466 5.76101 1.08208 8.32564 1.08154 11C1.08154 13.6731 2.14502 16.2397 4.03564 18.13C5.92469 20.0203 8.49122 21.0833 11.1649 21.0833C13.8385 21.0833 16.4051 20.0203 18.2941 18.13C20.1847 16.2397 21.2482 13.6731 21.2482 11C21.2482 8.32677 20.1847 5.76025 18.2941 3.86994C16.4051 1.97963 13.8385 0.916626 11.1649 0.916626Z" fill="url(#paint0_linear_106_26)"/>
<path id="Vector_2" d="M5.56936 10.6786C8.77655 9.28159 10.9147 8.36057 11.9837 7.91553C15.0397 6.64486 15.6739 6.42417 16.0881 6.41669C16.1792 6.41523 16.382 6.43775 16.5144 6.54474C16.6244 6.63497 16.6553 6.757 16.6708 6.84268C16.6845 6.92828 16.7034 7.12336 16.688 7.27564C16.523 9.01501 15.8062 13.2359 15.4419 15.1841C15.2889 16.0084 14.9847 16.2848 14.6908 16.3118C14.0514 16.3706 13.5667 15.8897 12.948 15.4842C11.9803 14.8495 11.4337 14.4545 10.4936 13.8352C9.40733 13.1196 10.112 12.7261 10.7308 12.0833C10.8923 11.9151 13.7076 9.35498 13.7609 9.12278C13.7678 9.09373 13.7747 8.98545 13.7094 8.92839C13.6458 8.87115 13.5512 8.89075 13.4825 8.90621C13.3845 8.92821 11.8394 9.95053 8.84186 11.973C8.40358 12.2744 8.00655 12.4214 7.64905 12.4137C7.25717 12.4052 6.50092 12.1916 5.93889 12.0091C5.25139 11.7851 4.70311 11.6667 4.75123 11.2863C4.7753 11.0883 5.04858 10.8857 5.56936 10.6786Z" fill="white"/>
</g>
<defs>
<linearGradient id="paint0_linear_106_26" x1="1009.41" y1="0.916626" x2="1009.41" y2="2017.58" gradientUnits="userSpaceOnUse">
<stop stop-color="#2AABEE"/>
<stop offset="1" stop-color="#229ED9"/>
</linearGradient>
</defs>
</svg>
