<svg width="22" height="22" viewBox="0 0 22 22" fill="none" xmlns="http://www.w3.org/2000/svg">
<g id="logos:whatsapp-icon" clip-path="url(#clip0_106_22)">
<path id="Vector" d="M0.472038 10.8684C0.471523 12.7168 0.958149 14.5216 1.88346 16.1125L0.383545 21.5478L5.988 20.0893C7.53812 20.9269 9.27491 21.3657 11.0398 21.3658H11.0445C16.8709 21.3658 21.6137 16.6603 21.6161 10.8766C21.6173 8.07401 20.5186 5.43862 18.5224 3.45589C16.5266 1.47333 13.8722 0.380918 11.044 0.379639C5.21699 0.379639 0.47453 5.08491 0.472124 10.8684" fill="url(#paint0_linear_106_22)"/>
<path id="Vector_2" d="M0.0948595 10.8649C0.0942581 12.7799 0.598325 14.6493 1.55663 16.2971L0.00292969 21.9273L5.80834 20.4165C7.40792 21.2821 9.20888 21.7385 11.0415 21.7392H11.0462C17.0816 21.7392 21.9948 16.8644 21.9973 10.8736C21.9984 7.97031 20.8602 5.24018 18.7927 3.18642C16.725 1.13291 13.9757 0.0011938 11.0462 0C5.00975 0 0.0972651 4.87411 0.0948595 10.8649ZM3.55219 16.0133L3.33543 15.6718C2.42421 14.2337 1.94325 12.572 1.94394 10.8656C1.94583 5.88619 6.02888 1.83504 11.0496 1.83504C13.481 1.83606 15.7661 2.77678 17.4847 4.48357C19.2033 6.19053 20.149 8.4596 20.1484 10.8729C20.1461 15.8524 16.063 19.904 11.0462 19.904H11.0426C9.40907 19.9032 7.80699 19.4678 6.40983 18.645L6.07734 18.4493L2.63229 19.3458L3.55219 16.0133Z" fill="url(#paint1_linear_106_22)"/>
<path id="Vector_3" d="M8.30893 6.32274C8.10394 5.87054 7.8882 5.86142 7.69326 5.85349C7.53363 5.84666 7.35114 5.84718 7.16883 5.84718C6.98634 5.84718 6.68985 5.91531 6.43923 6.1869C6.18836 6.45874 5.48145 7.11567 5.48145 8.45179C5.48145 9.78791 6.462 11.0793 6.59869 11.2606C6.73556 11.4417 8.49167 14.2713 11.2729 15.3599C13.5844 16.2645 14.0548 16.0846 14.5565 16.0392C15.0582 15.994 16.1755 15.3825 16.4034 14.7483C16.6315 14.1142 16.6315 13.5707 16.5631 13.4571C16.4947 13.344 16.3122 13.276 16.0386 13.1403C15.765 13.0045 14.4196 12.3474 14.1688 12.2568C13.9179 12.1662 13.7355 12.121 13.5531 12.3929C13.3706 12.6644 12.8466 13.276 12.6869 13.4571C12.5273 13.6387 12.3676 13.6613 12.094 13.5254C11.8202 13.3892 10.939 13.1027 9.89347 12.1776C9.08002 11.4578 8.53085 10.5688 8.37122 10.2969C8.21159 10.0254 8.35412 9.87821 8.49133 9.74288C8.61428 9.6212 8.76506 9.42576 8.90201 9.26724C9.03844 9.10863 9.08398 8.99548 9.17522 8.81436C9.26655 8.63308 9.22084 8.47447 9.15254 8.33863C9.08398 8.2028 8.55224 6.85969 8.30893 6.32274Z" fill="white"/>
</g>
<defs>
<linearGradient id="paint0_linear_106_22" x1="1062.01" y1="2117.2" x2="1062.01" y2="0.379639" gradientUnits="userSpaceOnUse">
<stop stop-color="#1FAF38"/>
<stop offset="1" stop-color="#60D669"/>
</linearGradient>
<linearGradient id="paint1_linear_106_22" x1="1099.72" y1="2192.73" x2="1099.72" y2="0" gradientUnits="userSpaceOnUse">
<stop stop-color="#F9F9F9"/>
<stop offset="1" stop-color="white"/>
</linearGradient>
<clipPath id="clip0_106_22">
<rect width="22" height="22" fill="white"/>
</clipPath>
</defs>
</svg>
